<svg width="20" height="20" viewBox="0 0 20 20" fill="none" xmlns="http://www.w3.org/2000/svg">
<path d="M16.618 5.46198L4.403 0.0849828C4.15859 -0.0221682 3.88165 -0.0279229 3.633 0.0689828C3.51012 0.117662 3.39809 0.190171 3.30335 0.282334C3.20861 0.374496 3.13305 0.484491 3.081 0.605983L0.0810001 7.60598C-0.0234672 7.84972 -0.0268457 8.12497 0.0716078 8.3712C0.170061 8.61743 0.362284 8.81447 0.606 8.91898L7.563 11.9L6.323 15H2V12H0V20H2V17H6.323C7.146 17 7.875 16.506 8.179 15.742L9.401 12.688L12.82 14.153C13.0626 14.2573 13.3367 14.2613 13.5823 14.1643C13.8279 14.0672 14.0252 13.8769 14.131 13.635L17.131 6.77798C17.2371 6.5354 17.2427 6.26063 17.1466 6.01392C17.0504 5.76722 16.8603 5.56873 16.618 5.46198ZM17.93 14.372L16.072 13.63L18.07 8.62998L19.928 9.37098L17.93 14.372Z" fill="#3B3364"/>
</svg>
