<svg width="13" height="13" viewBox="0 0 13 13" fill="none" xmlns="http://www.w3.org/2000/svg">
<path d="M8.78735 6C8.6436 5.8125 8.4686 5.65 8.3061 5.4875C7.88735 5.1125 7.41235 4.84375 7.01235 4.45C6.0811 3.5375 5.87485 2.03125 6.4686 0.875C5.87485 1.01875 5.3561 1.34375 4.91235 1.7C3.2936 3 2.6561 5.29375 3.4186 7.2625C3.4436 7.325 3.4686 7.3875 3.4686 7.46875C3.4686 7.60625 3.37485 7.73125 3.24985 7.78125C3.1061 7.84375 2.9561 7.80625 2.83735 7.70625C2.80166 7.67675 2.77196 7.64068 2.74985 7.6C2.0436 6.70625 1.9311 5.425 2.4061 4.4C1.36235 5.25 0.793598 6.6875 0.874848 8.04375C0.912348 8.35625 0.949848 8.66875 1.0561 8.98125C1.1436 9.35625 1.31235 9.73125 1.49985 10.0625C2.17485 11.1438 3.3436 11.9187 4.59985 12.075C5.93735 12.2437 7.3686 12 8.3936 11.075C9.53735 10.0375 9.93735 8.375 9.34985 6.95L9.2686 6.7875C9.13735 6.5 8.78735 6 8.78735 6ZM6.81235 9.9375C6.63735 10.0875 6.34985 10.25 6.12485 10.3125C5.42485 10.5625 4.72485 10.2125 4.31235 9.8C5.0561 9.625 5.49985 9.075 5.6311 8.51875C5.73735 8.01875 5.53735 7.60625 5.4561 7.125C5.3811 6.6625 5.3936 6.26875 5.56235 5.8375C5.6811 6.075 5.8061 6.3125 5.9561 6.5C6.43735 7.125 7.1936 7.4 7.3561 8.25C7.3811 8.3375 7.3936 8.425 7.3936 8.51875C7.41235 9.03125 7.18735 9.59375 6.81235 9.9375ZM12.1248 7.125H10.8748V3.375H12.1248V7.125ZM12.1248 9.625H10.8748V8.375H12.1248V9.625Z" fill="#183153"/>
</svg>
