<svg width="19" height="20" viewBox="0 0 19 20" fill="none" xmlns="http://www.w3.org/2000/svg">
<path d="M0.998241 3.24609C0.998241 2.64936 1.23529 2.07706 1.65725 1.6551C2.07921 1.23315 2.6515 0.996094 3.24824 0.996094H5.75524C6.35198 0.996094 6.92427 1.23315 7.34623 1.6551C7.76819 2.07706 8.00524 2.64936 8.00524 3.24609V5.75309C8.00524 6.34983 7.76819 6.92213 7.34623 7.34408C6.92427 7.76604 6.35198 8.00309 5.75524 8.00309H5.25024V11.7101C5.29724 11.7441 5.34124 11.7831 5.38424 11.8261L8.17424 14.6161C8.21724 14.6601 8.25624 14.7041 8.29124 14.7511H12.0052V14.2511C12.0052 13.9556 12.0634 13.663 12.1765 13.3901C12.2896 13.1171 12.4553 12.869 12.6643 12.6601C12.8732 12.4512 13.1212 12.2854 13.3942 12.1724C13.6672 12.0593 13.9598 12.0011 14.2552 12.0011H16.7492C17.346 12.0011 17.9183 12.2381 18.3402 12.6601C18.7622 13.0821 18.9992 13.6544 18.9992 14.2511V16.7551C18.9992 17.3518 18.7622 17.9241 18.3402 18.3461C17.9183 18.768 17.346 19.0051 16.7492 19.0051H14.2552C13.6585 19.0051 13.0862 18.768 12.6643 18.3461C12.2423 17.9241 12.0052 17.3518 12.0052 16.7551V16.2511H8.29024C8.25508 16.2981 8.21665 16.3425 8.17524 16.3841L5.38424 19.1761C5.26816 19.2922 5.13035 19.3843 4.97867 19.4471C4.82699 19.51 4.66442 19.5423 4.50024 19.5423C4.33606 19.5423 4.17349 19.51 4.02181 19.4471C3.87013 19.3843 3.73232 19.2922 3.61624 19.1761L0.824241 16.3851C0.708133 16.269 0.616029 16.1312 0.55319 15.9795C0.490351 15.8278 0.458008 15.6653 0.458008 15.5011C0.458008 15.3369 0.490351 15.1743 0.55319 15.0227C0.616029 14.871 0.708133 14.7332 0.824241 14.6171L3.61624 11.8251C3.65813 11.7833 3.70291 11.7446 3.75024 11.7091V8.00309H3.24824C2.6515 8.00309 2.07921 7.76604 1.65725 7.34408C1.23529 6.92213 0.998241 6.34983 0.998241 5.75309V3.24609Z" fill="#3B3364"/>
</svg>
