<svg width="11" height="12" viewBox="0 0 11 12" fill="none" xmlns="http://www.w3.org/2000/svg">
<path d="M6.04167 11.0792L5.0125 10.7542L5.22917 10.05C5.24722 9.97778 5.26311 9.90556 5.27683 9.83333C5.29019 9.76111 5.29688 9.68889 5.29688 9.61667C5.29688 9.47222 5.28117 9.33681 5.24975 9.21042C5.21797 9.08403 5.15694 8.94861 5.06667 8.80417C4.91319 8.56042 4.80269 8.33472 4.73517 8.12708C4.66728 7.91945 4.62882 7.67118 4.61979 7.38229C4.61979 7.26493 4.62882 7.13403 4.64688 6.98958C4.66493 6.84514 4.69653 6.70972 4.74167 6.58333L4.95833 5.87917L5.9875 6.20417L5.77083 6.90833C5.74375 6.98958 5.72569 7.06849 5.71667 7.14504C5.70764 7.22196 5.70312 7.30104 5.70312 7.38229C5.70312 7.53576 5.71901 7.66883 5.75079 7.7815C5.78221 7.89453 5.84306 8.01875 5.93333 8.15417C6.08681 8.39792 6.19965 8.63264 6.27188 8.85833C6.3441 9.08403 6.38021 9.33681 6.38021 9.61667C6.38021 9.74306 6.37118 9.86944 6.35313 9.99583C6.33507 10.1222 6.30347 10.2486 6.25833 10.375L6.04167 11.0792ZM3.65833 11.0792L2.62917 10.7542L2.84583 10.05C2.86389 9.97778 2.87978 9.90772 2.8935 9.83983C2.90686 9.77231 2.91354 9.69792 2.91354 9.61667C2.91354 9.46319 2.89549 9.32092 2.85938 9.18983C2.82326 9.05911 2.76458 8.93056 2.68333 8.80417C2.53889 8.59653 2.42839 8.373 2.35183 8.13358C2.27492 7.89453 2.23646 7.6441 2.23646 7.38229C2.23646 7.24688 2.24549 7.11146 2.26354 6.97604C2.2816 6.84063 2.31319 6.70972 2.35833 6.58333L2.575 5.87917L3.60417 6.20417L3.3875 6.90833C3.36042 6.98958 3.34236 7.073 3.33333 7.15858C3.32431 7.24453 3.31979 7.3191 3.31979 7.38229C3.31979 7.55382 3.34019 7.70061 3.381 7.82267C3.42144 7.94436 3.47778 8.05486 3.55 8.15417C3.70347 8.37083 3.81632 8.60339 3.88854 8.85183C3.96076 9.09992 3.99688 9.35486 3.99688 9.61667C3.99688 9.74306 3.98785 9.86944 3.96979 9.99583C3.95174 10.1222 3.92014 10.2486 3.875 10.375L3.65833 11.0792ZM8.37083 11.0792L7.34167 10.7542L7.55833 10.05C7.57639 9.97778 7.59228 9.90556 7.606 9.83333C7.61936 9.76111 7.62604 9.68889 7.62604 9.61667C7.62604 9.47222 7.60799 9.33229 7.57188 9.19688C7.53576 9.06146 7.47708 8.93056 7.39583 8.80417C7.25139 8.59653 7.14089 8.37083 7.06433 8.12708C6.98742 7.88333 6.94896 7.63507 6.94896 7.38229C6.94896 7.24688 6.95799 7.11381 6.97604 6.98308C6.9941 6.852 7.02569 6.71875 7.07083 6.58333L7.2875 5.87917L8.31667 6.20417L8.1 6.90833C8.07292 7.00764 8.05486 7.09106 8.04583 7.15858C8.03681 7.22647 8.03229 7.30104 8.03229 7.38229C8.03229 7.53576 8.05035 7.67118 8.08646 7.78854C8.12257 7.9059 8.18125 8.02778 8.2625 8.15417C8.41597 8.37986 8.52882 8.61458 8.60104 8.85833C8.67326 9.10208 8.70937 9.35486 8.70937 9.61667C8.70937 9.74306 8.70035 9.86944 8.68229 9.99583C8.66424 10.1222 8.63264 10.2486 8.5875 10.375L8.37083 11.0792ZM3.55 3.875H7.45L7.6125 3.33333H3.3875L3.55 3.875ZM3.55 4.95833C3.31528 4.95833 3.10313 4.88846 2.91354 4.74871C2.72396 4.6086 2.59306 4.42569 2.52083 4.2L2.25 3.33333H1.70833C1.41042 3.33333 1.15529 3.22717 0.942958 3.01483C0.730986 2.80286 0.625 2.54792 0.625 2.25V0.625H10.375V2.25C10.375 2.54792 10.269 2.80286 10.057 3.01483C9.84471 3.22717 9.58958 3.33333 9.29167 3.33333H8.75L8.39792 4.25417C8.31667 4.46181 8.18576 4.63099 8.00521 4.76171C7.82465 4.89279 7.62153 4.95833 7.39583 4.95833H3.55Z" fill="#183153"/>
</svg>
