<svg width="14" height="14" viewBox="0 0 14 14" fill="none" xmlns="http://www.w3.org/2000/svg">
<path d="M9.7454 6.4C9.5729 6.175 9.3629 5.98 9.1679 5.785C8.6654 5.335 8.0954 5.0125 7.6154 4.54C6.4979 3.445 6.2504 1.6375 6.9629 0.25C6.2504 0.4225 5.6279 0.8125 5.0954 1.24C3.1529 2.8 2.3879 5.5525 3.3029 7.915C3.3329 7.99 3.3629 8.065 3.3629 8.1625C3.3629 8.3275 3.2504 8.4775 3.1004 8.5375C2.9279 8.6125 2.7479 8.5675 2.6054 8.4475C2.56258 8.4121 2.52694 8.36882 2.5004 8.32C1.6529 7.2475 1.5179 5.71 2.0879 4.48C0.835403 5.5 0.152903 7.225 0.250403 8.8525C0.295403 9.2275 0.340403 9.6025 0.467903 9.9775C0.572903 10.4275 0.775403 10.8775 1.0004 11.275C1.8104 12.5725 3.2129 13.5025 4.7204 13.69C6.3254 13.8925 8.0429 13.6 9.2729 12.49C10.6454 11.245 11.1254 9.25 10.4204 7.54L10.3229 7.345C10.1654 7 9.7454 6.4 9.7454 6.4M7.3754 11.125C7.1654 11.305 6.8204 11.5 6.5504 11.575C5.7104 11.875 4.8704 11.455 4.3754 10.96C5.2679 10.75 5.8004 10.09 5.9579 9.4225C6.0854 8.8225 5.8454 8.3275 5.7479 7.75C5.6579 7.195 5.6729 6.7225 5.8754 6.205C6.0179 6.49 6.1679 6.775 6.3479 7C6.9254 7.75 7.8329 8.08 8.0279 9.1C8.0579 9.205 8.0729 9.31 8.0729 9.4225C8.0954 10.0375 7.8254 10.7125 7.3754 11.125M13.7504 7.75H12.2504V3.25H13.7504V7.75ZM13.7504 10.75H12.2504V9.25H13.7504V10.75Z" fill="#E13232"/>
</svg>
