<svg width="13" height="9" viewBox="0 0 13 9" fill="none" xmlns="http://www.w3.org/2000/svg">
<path d="M0.25 0.125V5.125H1.5V3.875H5.25L6.5 2.625L5.25 1.375H1.5V0.125H0.25ZM11.5 0.125V1.375H6.5L7.75 2.625L6.5 3.875H11.5V5.125H12.75V0.125H11.5ZM6.5 5.125C6.5 5.125 5.25 6.48125 5.25 7.3125C5.25 7.64402 5.3817 7.96196 5.61612 8.19638C5.85054 8.4308 6.16848 8.5625 6.5 8.5625C6.83152 8.5625 7.14946 8.4308 7.38388 8.19638C7.6183 7.96196 7.75 7.64402 7.75 7.3125C7.75 6.48125 6.5 5.125 6.5 5.125Z" fill="#183153"/>
</svg>
